<?xml version="1.0" encoding="utf-8"?>
<svg version="1.1" xmlns:xlink="http://www.w3.org/1999/xlink" width="601px" height="40px" xmlns="http://www.w3.org/2000/svg">
  <defs>
    <pattern id="BGPattern" patternUnits="userSpaceOnUse" alignment="0 0" imageRepeat="None" />
    <mask fill="white" id="Clip76">
      <path d="M 0 40  L 0 0  L 601 0  L 601 40  L 0 40  Z " fill-rule="evenodd" />
    </mask>
  </defs>
  <g transform="matrix(1 0 0 1 -265 -277 )">
    <path d="M 0 40  L 0 0  L 601 0  L 601 40  L 0 40  Z " fill-rule="nonzero" fill="rgba(242, 242, 242, 0)" stroke="none" transform="matrix(1 0 0 1 265 277 )" class="fill" />
    <path d="M 0 40  L 0 0  L 601 0  L 601 40  L 0 40  Z " stroke-width="2" stroke-dasharray="0" stroke="rgba(255, 0, 0, 1)" fill="none" transform="matrix(1 0 0 1 265 277 )" class="stroke" mask="url(#Clip76)" />
    <path d="M 593.5040838596744 0.49889624894013807  L 7.4959161403255745 39.501103751059865  M 7.4959161403255745 0.49889624894013807  L 593.5040838596744 39.501103751059865  " stroke-width="1" stroke-dasharray="0" stroke="rgba(255, 0, 0, 1)" fill="none" transform="matrix(1 0 0 1 265 277 )" class="stroke" />
  </g>
</svg>