<?xml version="1.0" encoding="utf-8"?>
<svg version="1.1" xmlns:xlink="http://www.w3.org/1999/xlink" width="78px" height="81px" xmlns="http://www.w3.org/2000/svg">
  <defs>
    <pattern id="BGPattern" patternUnits="userSpaceOnUse" alignment="0 0" imageRepeat="None" />
    <mask fill="white" id="Clip109">
      <path d="M 0 81  L 0 0  L 78 0  L 78 81  L 0 81  Z " fill-rule="evenodd" />
    </mask>
  </defs>
  <g transform="matrix(1 0 0 1 -507 -329 )">
    <path d="M 0 81  L 0 0  L 78 0  L 78 81  L 0 81  Z " fill-rule="nonzero" fill="rgba(242, 242, 242, 1)" stroke="none" transform="matrix(1 0 0 1 507 329 )" class="fill" />
    <path d="M 0 81  L 0 0  L 78 0  L 78 81  L 0 81  Z " stroke-width="2" stroke-dasharray="0" stroke="rgba(121, 121, 121, 1)" fill="none" transform="matrix(1 0 0 1 507 329 )" class="stroke" mask="url(#Clip109)" />
    <path d="M 77.63983989325426 0.3740124185436536  L 0.3601601067457405 80.62598758145634  M 0.3601601067457405 0.3740124185436536  L 77.63983989325426 80.62598758145634  " stroke-width="1" stroke-dasharray="0" stroke="rgba(121, 121, 121, 1)" fill="none" transform="matrix(1 0 0 1 507 329 )" class="stroke" />
  </g>
</svg>