<?xml version="1.0" encoding="utf-8"?>
<svg version="1.1" xmlns:xlink="http://www.w3.org/1999/xlink" width="120px" height="660px" xmlns="http://www.w3.org/2000/svg">
  <defs>
    <pattern id="BGPattern" patternUnits="userSpaceOnUse" alignment="0 0" imageRepeat="None" />
    <mask fill="white" id="Clip75">
      <path d="M 0 660  L 0 0  L 120 0  L 120 660  L 0 660  Z " fill-rule="evenodd" />
    </mask>
  </defs>
  <g transform="matrix(1 0 0 1 -392 -156 )">
    <path d="M 0 660  L 0 0  L 120 0  L 120 660  L 0 660  Z " fill-rule="nonzero" fill="rgba(242, 242, 242, 0)" stroke="none" transform="matrix(1 0 0 1 392 156 )" class="fill" />
    <path d="M 0 660  L 0 0  L 120 0  L 120 660  L 0 660  Z " stroke-width="2" stroke-dasharray="0" stroke="rgba(255, 0, 0, 1)" fill="none" transform="matrix(1 0 0 1 392 156 )" class="stroke" mask="url(#Clip75)" />
    <path d="M 119.50806504495004 2.7056422527747457  L 0.4919349550499537 657.2943577472253  M 0.4919349550499537 2.7056422527747457  L 119.50806504495004 657.2943577472253  " stroke-width="1" stroke-dasharray="0" stroke="rgba(255, 0, 0, 1)" fill="none" transform="matrix(1 0 0 1 392 156 )" class="stroke" />
  </g>
</svg>