<?xml version="1.0" encoding="utf-8"?>
<svg version="1.1" xmlns:xlink="http://www.w3.org/1999/xlink" width="34px" height="34px" xmlns="http://www.w3.org/2000/svg">
  <defs>
    <pattern id="BGPattern" patternUnits="userSpaceOnUse" alignment="0 0" imageRepeat="None" />
    <mask fill="white" id="Clip21">
      <path d="M 0.6822742474916388 26.714285714285715  L 33.31772575250836 26.714285714285715  L 33.98104793756968 32.652901785714285  C 34.01895206243032 33.007068452380956  33.91787439613527 33.32328869047619  33.677814938684506 33.6015625  C 33.437755481233744 33.8671875  33.13452248234857 34  32.768115942028984 34  L 1.2318840579710146 34  C 0.8654775176514308 34  0.5622445187662579 33.8671875  0.3221850613154961 33.6015625  C 0.08212560386473429 33.32328869047619  -0.0189520624303233 33.007068452380956  0.0189520624303233 32.652901785714285  L 0.6822742474916388 26.714285714285715  Z M 31.157190635451503 10.02734375  C 31.384615384615387 10.23604910714286  31.517279821627646 10.4921875  31.555183946488295 10.795758928571427  L 33.1850613154961 25  L 0.8149386845039019 25  L 2.4448160535117056 10.795758928571427  C 2.482720178372352 10.4921875  2.6153846153846154 10.23604910714286  2.842809364548495 10.02734375  C 3.0702341137123743 9.81863839285714  3.3418803418803424 9.714285714285714  3.6577480490523966 9.714285714285714  L 8.509476031215161 9.714285714285714  L 8.509476031215161 12.14285714285714  C 8.509476031215161 12.813244047619044  8.746376811594201 13.385602678571427  9.220178372352285 13.859933035714286  C 9.693979933110366 14.33426339285714  10.26570048309179 14.571428571428573  10.935340022296543 14.571428571428573  C 11.6049795615013 14.571428571428573  12.17670011148272 14.33426339285714  12.650501672240802 13.859933035714286  C 13.124303232998885 13.385602678571427  13.361204013377927 12.813244047619044  13.361204013377927 12.14285714285714  L 13.361204013377927 9.714285714285714  L 20.638795986622075 9.714285714285714  L 20.638795986622075 12.14285714285714  C 20.638795986622075 12.813244047619044  20.875696767001116 13.385602678571427  21.349498327759196 13.859933035714286  C 21.82329988851728 14.33426339285714  22.3950204384987 14.571428571428573  23.064659977703453 14.571428571428573  C 23.734299516908216 14.571428571428573  24.306020066889634 14.33426339285714  24.779821627647717 13.859933035714286  C 25.253623188405797 13.385602678571427  25.49052396878484 12.813244047619044  25.49052396878484 12.14285714285714  L 25.49052396878484 9.714285714285714  L 30.342251950947606 9.714285714285714  C 30.65811965811966 9.714285714285714  30.929765886287623 9.81863839285714  31.157190635451503 10.02734375  Z M 22.145484949832774 2.1344866071428585  C 23.566889632107024 3.5574776785714275  24.277591973244146 5.274553571428573  24.277591973244146 7.2857142857142865  L 24.277591973244146 12.14285714285714  C 24.277591973244146 12.47172619047619  24.157562244518765 12.756324404761903  23.917502787068006 12.996651785714286  C 23.677443329617248 13.236979166666666  23.393162393162395 13.35714285714286  23.064659977703453 13.35714285714286  C 22.736157562244518 13.35714285714286  22.45187662578967 13.236979166666666  22.211817168338907 12.996651785714286  C 21.97175771088815 12.756324404761903  21.851727982162767 12.47172619047619  21.851727982162767 12.14285714285714  L 21.851727982162767 7.2857142857142865  C 21.851727982162767 5.944940476190476  21.377926421404684 4.8002232142857135  20.430323299888517 3.8515625  C 19.482720178372354 2.9029017857142865  18.339279078409515 2.4285714285714275  17 2.4285714285714275  C 15.660720921590489 2.4285714285714275  14.517279821627646 2.9029017857142865  13.569676700111481 3.8515625  C 12.622073578595316 4.8002232142857135  12.148272017837236 5.944940476190476  12.148272017837236 7.2857142857142865  L 12.148272017837236 12.14285714285714  C 12.148272017837236 12.47172619047619  12.028242289111855 12.756324404761903  11.788182831661091 12.996651785714286  C 11.548123374210332 13.236979166666666  11.263842437755482 13.35714285714286  10.935340022296543 13.35714285714286  C 10.606837606837608 13.35714285714286  10.32255667038276 13.236979166666666  10.082497212931996 12.996651785714286  C 9.842437755481233 12.756324404761903  9.722408026755852 12.47172619047619  9.722408026755852 12.14285714285714  L 9.722408026755852 7.2857142857142865  C 9.722408026755852 5.274553571428573  10.433110367892978 3.5574776785714275  11.854515050167224 2.1344866071428585  C 13.275919732441473 0.7114955357142863  14.99108138238573 0  17 0  C 19.00891861761427 0  20.724080267558527 0.7114955357142863  22.145484949832774 2.1344866071428585  Z " fill-rule="evenodd" />
    </mask>
  </defs>
  <g transform="matrix(1 0 0 1 -197 -906 )">
    <path d="M 0.6822742474916388 26.714285714285715  L 33.31772575250836 26.714285714285715  L 33.98104793756968 32.652901785714285  C 34.01895206243032 33.007068452380956  33.91787439613527 33.32328869047619  33.677814938684506 33.6015625  C 33.437755481233744 33.8671875  33.13452248234857 34  32.768115942028984 34  L 1.2318840579710146 34  C 0.8654775176514308 34  0.5622445187662579 33.8671875  0.3221850613154961 33.6015625  C 0.08212560386473429 33.32328869047619  -0.0189520624303233 33.007068452380956  0.0189520624303233 32.652901785714285  L 0.6822742474916388 26.714285714285715  Z M 31.157190635451503 10.02734375  C 31.384615384615387 10.23604910714286  31.517279821627646 10.4921875  31.555183946488295 10.795758928571427  L 33.1850613154961 25  L 0.8149386845039019 25  L 2.4448160535117056 10.795758928571427  C 2.482720178372352 10.4921875  2.6153846153846154 10.23604910714286  2.842809364548495 10.02734375  C 3.0702341137123743 9.81863839285714  3.3418803418803424 9.714285714285714  3.6577480490523966 9.714285714285714  L 8.509476031215161 9.714285714285714  L 8.509476031215161 12.14285714285714  C 8.509476031215161 12.813244047619044  8.746376811594201 13.385602678571427  9.220178372352285 13.859933035714286  C 9.693979933110366 14.33426339285714  10.26570048309179 14.571428571428573  10.935340022296543 14.571428571428573  C 11.6049795615013 14.571428571428573  12.17670011148272 14.33426339285714  12.650501672240802 13.859933035714286  C 13.124303232998885 13.385602678571427  13.361204013377927 12.813244047619044  13.361204013377927 12.14285714285714  L 13.361204013377927 9.714285714285714  L 20.638795986622075 9.714285714285714  L 20.638795986622075 12.14285714285714  C 20.638795986622075 12.813244047619044  20.875696767001116 13.385602678571427  21.349498327759196 13.859933035714286  C 21.82329988851728 14.33426339285714  22.3950204384987 14.571428571428573  23.064659977703453 14.571428571428573  C 23.734299516908216 14.571428571428573  24.306020066889634 14.33426339285714  24.779821627647717 13.859933035714286  C 25.253623188405797 13.385602678571427  25.49052396878484 12.813244047619044  25.49052396878484 12.14285714285714  L 25.49052396878484 9.714285714285714  L 30.342251950947606 9.714285714285714  C 30.65811965811966 9.714285714285714  30.929765886287623 9.81863839285714  31.157190635451503 10.02734375  Z M 22.145484949832774 2.1344866071428585  C 23.566889632107024 3.5574776785714275  24.277591973244146 5.274553571428573  24.277591973244146 7.2857142857142865  L 24.277591973244146 12.14285714285714  C 24.277591973244146 12.47172619047619  24.157562244518765 12.756324404761903  23.917502787068006 12.996651785714286  C 23.677443329617248 13.236979166666666  23.393162393162395 13.35714285714286  23.064659977703453 13.35714285714286  C 22.736157562244518 13.35714285714286  22.45187662578967 13.236979166666666  22.211817168338907 12.996651785714286  C 21.97175771088815 12.756324404761903  21.851727982162767 12.47172619047619  21.851727982162767 12.14285714285714  L 21.851727982162767 7.2857142857142865  C 21.851727982162767 5.944940476190476  21.377926421404684 4.8002232142857135  20.430323299888517 3.8515625  C 19.482720178372354 2.9029017857142865  18.339279078409515 2.4285714285714275  17 2.4285714285714275  C 15.660720921590489 2.4285714285714275  14.517279821627646 2.9029017857142865  13.569676700111481 3.8515625  C 12.622073578595316 4.8002232142857135  12.148272017837236 5.944940476190476  12.148272017837236 7.2857142857142865  L 12.148272017837236 12.14285714285714  C 12.148272017837236 12.47172619047619  12.028242289111855 12.756324404761903  11.788182831661091 12.996651785714286  C 11.548123374210332 13.236979166666666  11.263842437755482 13.35714285714286  10.935340022296543 13.35714285714286  C 10.606837606837608 13.35714285714286  10.32255667038276 13.236979166666666  10.082497212931996 12.996651785714286  C 9.842437755481233 12.756324404761903  9.722408026755852 12.47172619047619  9.722408026755852 12.14285714285714  L 9.722408026755852 7.2857142857142865  C 9.722408026755852 5.274553571428573  10.433110367892978 3.5574776785714275  11.854515050167224 2.1344866071428585  C 13.275919732441473 0.7114955357142863  14.99108138238573 0  17 0  C 19.00891861761427 0  20.724080267558527 0.7114955357142863  22.145484949832774 2.1344866071428585  Z " fill-rule="nonzero" fill="rgba(255, 255, 255, 1)" stroke="none" transform="matrix(1 0 0 1 197 906 )" class="fill" />
    <path d="M 0.6822742474916388 26.714285714285715  L 33.31772575250836 26.714285714285715  L 33.98104793756968 32.652901785714285  C 34.01895206243032 33.007068452380956  33.91787439613527 33.32328869047619  33.677814938684506 33.6015625  C 33.437755481233744 33.8671875  33.13452248234857 34  32.768115942028984 34  L 1.2318840579710146 34  C 0.8654775176514308 34  0.5622445187662579 33.8671875  0.3221850613154961 33.6015625  C 0.08212560386473429 33.32328869047619  -0.0189520624303233 33.007068452380956  0.0189520624303233 32.652901785714285  L 0.6822742474916388 26.714285714285715  Z " stroke-width="0" stroke-dasharray="0" stroke="rgba(255, 255, 255, 0)" fill="none" transform="matrix(1 0 0 1 197 906 )" class="stroke" mask="url(#Clip21)" />
    <path d="M 31.157190635451503 10.02734375  C 31.384615384615387 10.23604910714286  31.517279821627646 10.4921875  31.555183946488295 10.795758928571427  L 33.1850613154961 25  L 0.8149386845039019 25  L 2.4448160535117056 10.795758928571427  C 2.482720178372352 10.4921875  2.6153846153846154 10.23604910714286  2.842809364548495 10.02734375  C 3.0702341137123743 9.81863839285714  3.3418803418803424 9.714285714285714  3.6577480490523966 9.714285714285714  L 8.509476031215161 9.714285714285714  L 8.509476031215161 12.14285714285714  C 8.509476031215161 12.813244047619044  8.746376811594201 13.385602678571427  9.220178372352285 13.859933035714286  C 9.693979933110366 14.33426339285714  10.26570048309179 14.571428571428573  10.935340022296543 14.571428571428573  C 11.6049795615013 14.571428571428573  12.17670011148272 14.33426339285714  12.650501672240802 13.859933035714286  C 13.124303232998885 13.385602678571427  13.361204013377927 12.813244047619044  13.361204013377927 12.14285714285714  L 13.361204013377927 9.714285714285714  L 20.638795986622075 9.714285714285714  L 20.638795986622075 12.14285714285714  C 20.638795986622075 12.813244047619044  20.875696767001116 13.385602678571427  21.349498327759196 13.859933035714286  C 21.82329988851728 14.33426339285714  22.3950204384987 14.571428571428573  23.064659977703453 14.571428571428573  C 23.734299516908216 14.571428571428573  24.306020066889634 14.33426339285714  24.779821627647717 13.859933035714286  C 25.253623188405797 13.385602678571427  25.49052396878484 12.813244047619044  25.49052396878484 12.14285714285714  L 25.49052396878484 9.714285714285714  L 30.342251950947606 9.714285714285714  C 30.65811965811966 9.714285714285714  30.929765886287623 9.81863839285714  31.157190635451503 10.02734375  Z " stroke-width="0" stroke-dasharray="0" stroke="rgba(255, 255, 255, 0)" fill="none" transform="matrix(1 0 0 1 197 906 )" class="stroke" mask="url(#Clip21)" />
    <path d="M 22.145484949832774 2.1344866071428585  C 23.566889632107024 3.5574776785714275  24.277591973244146 5.274553571428573  24.277591973244146 7.2857142857142865  L 24.277591973244146 12.14285714285714  C 24.277591973244146 12.47172619047619  24.157562244518765 12.756324404761903  23.917502787068006 12.996651785714286  C 23.677443329617248 13.236979166666666  23.393162393162395 13.35714285714286  23.064659977703453 13.35714285714286  C 22.736157562244518 13.35714285714286  22.45187662578967 13.236979166666666  22.211817168338907 12.996651785714286  C 21.97175771088815 12.756324404761903  21.851727982162767 12.47172619047619  21.851727982162767 12.14285714285714  L 21.851727982162767 7.2857142857142865  C 21.851727982162767 5.944940476190476  21.377926421404684 4.8002232142857135  20.430323299888517 3.8515625  C 19.482720178372354 2.9029017857142865  18.339279078409515 2.4285714285714275  17 2.4285714285714275  C 15.660720921590489 2.4285714285714275  14.517279821627646 2.9029017857142865  13.569676700111481 3.8515625  C 12.622073578595316 4.8002232142857135  12.148272017837236 5.944940476190476  12.148272017837236 7.2857142857142865  L 12.148272017837236 12.14285714285714  C 12.148272017837236 12.47172619047619  12.028242289111855 12.756324404761903  11.788182831661091 12.996651785714286  C 11.548123374210332 13.236979166666666  11.263842437755482 13.35714285714286  10.935340022296543 13.35714285714286  C 10.606837606837608 13.35714285714286  10.32255667038276 13.236979166666666  10.082497212931996 12.996651785714286  C 9.842437755481233 12.756324404761903  9.722408026755852 12.47172619047619  9.722408026755852 12.14285714285714  L 9.722408026755852 7.2857142857142865  C 9.722408026755852 5.274553571428573  10.433110367892978 3.5574776785714275  11.854515050167224 2.1344866071428585  C 13.275919732441473 0.7114955357142863  14.99108138238573 0  17 0  C 19.00891861761427 0  20.724080267558527 0.7114955357142863  22.145484949832774 2.1344866071428585  Z " stroke-width="0" stroke-dasharray="0" stroke="rgba(255, 255, 255, 0)" fill="none" transform="matrix(1 0 0 1 197 906 )" class="stroke" mask="url(#Clip21)" />
  </g>
</svg>