<?xml version="1.0" encoding="utf-8"?>
<svg version="1.1" xmlns:xlink="http://www.w3.org/1999/xlink" width="24px" height="34px" xmlns="http://www.w3.org/2000/svg">
  <defs>
    <pattern id="BGPattern" patternUnits="userSpaceOnUse" alignment="0 0" imageRepeat="None" />
    <mask fill="white" id="Clip22">
      <path d="M 24 6.7431930693069315  C 24 7.297235973597357  23.805555555555557 7.770627062706268  23.416666666666664 8.163366336633663  L 17 14.306930693069308  L 17 31.64356435643564  C 17.333333333333332 32.28877887788779  17.104166666666668 32.84282178217822  16.645833333333332 33.30569306930693  C 16.1875 33.76856435643565  15.638888888888891 34  15 34  C 14.36111111111111 34  13.8125 33.76856435643565  13.354166666666668 33.30569306930693  C 12.895833333333332 32.84282178217822  12.666666666666668 32.28877887788779  12.666666666666668 31.64356435643564  L 12.666666666666668 23.564356435643564  L 11.333333333333332 23.564356435643564  L 11.333333333333332 31.64356435643564  C 11.333333333333332 32.28877887788779  11.104166666666666 32.84282178217822  10.645833333333334 33.30569306930693  C 10.1875 33.76856435643565  9.638888888888891 34  9 34  C 8.36111111111111 34  7.812500000000001 33.76856435643565  7.354166666666666 33.30569306930693  C 6.895833333333334 32.84282178217822  6.666666666666667 32.28877887788779  7 31.64356435643564  L 7 14.306930693069308  L 0.5833333333333334 8.163366336633663  C 0.19444444444444464 7.770627062706268  0 7.293729372937292  0 6.7326732673267315  C 0 6.171617161716171  0.19444444444444464 5.694719471947191  0.5833333333333334 5.301980198019803  C 0.9861111111111114 4.9092409240924075  1.461805555555556 4.7128712871287135  2.0104166666666665 4.7128712871287135  C 2.5590277777777777 4.7128712871287135  3.0277777777777777 4.9092409240924075  3.4166666666666665 5.301980198019803  L 8.166666666666668 10.0990099009901  L 15.833333333333332 10.0990099009901  L 20.583333333333332 5.301980198019803  C 20.972222222222225 4.9092409240924075  21.444444444444446 4.7128712871287135  22 4.7128712871287135  C 22.555555555555557 4.7128712871287135  23.027777777777782 4.9092409240924075  23.416666666666664 5.301980198019803  C 23.805555555555557 5.708745874587457  24 6.1891501650165  24 6.7431930693069315  Z M 15.302083333333334 1.378094059405939  C 16.211805555555557 2.2968234323432304  16.666666666666668 3.4084158415841577  16.666666666666664 4.7128712871287135  C 16.666666666666668 6.0173267326732685  16.211805555555557 7.128919141914189  15.302083333333334 8.047648514851485  C 14.392361111111112 8.966377887788775  13.291666666666666 9.425742574257427  12 9.425742574257427  C 10.708333333333334 9.425742574257427  9.60763888888889 8.966377887788775  8.697916666666666 8.047648514851485  C 7.788194444444445 7.128919141914189  7.333333333333334 6.0173267326732685  7.333333333333334 4.7128712871287135  C 7.333333333333334 3.4084158415841577  7.788194444444445 2.2968234323432304  8.697916666666666 1.378094059405939  C 9.60763888888889 0.4593646864686438  10.708333333333334 0  12 0  C 13.291666666666666 0  14.392361111111112 0.4593646864686438  15.302083333333334 1.378094059405939  Z " fill-rule="evenodd" />
    </mask>
  </defs>
  <g transform="matrix(1 0 0 1 -356 -906 )">
    <path d="M 24 6.7431930693069315  C 24 7.297235973597357  23.805555555555557 7.770627062706268  23.416666666666664 8.163366336633663  L 17 14.306930693069308  L 17 31.64356435643564  C 17.333333333333332 32.28877887788779  17.104166666666668 32.84282178217822  16.645833333333332 33.30569306930693  C 16.1875 33.76856435643565  15.638888888888891 34  15 34  C 14.36111111111111 34  13.8125 33.76856435643565  13.354166666666668 33.30569306930693  C 12.895833333333332 32.84282178217822  12.666666666666668 32.28877887788779  12.666666666666668 31.64356435643564  L 12.666666666666668 23.564356435643564  L 11.333333333333332 23.564356435643564  L 11.333333333333332 31.64356435643564  C 11.333333333333332 32.28877887788779  11.104166666666666 32.84282178217822  10.645833333333334 33.30569306930693  C 10.1875 33.76856435643565  9.638888888888891 34  9 34  C 8.36111111111111 34  7.812500000000001 33.76856435643565  7.354166666666666 33.30569306930693  C 6.895833333333334 32.84282178217822  6.666666666666667 32.28877887788779  7 31.64356435643564  L 7 14.306930693069308  L 0.5833333333333334 8.163366336633663  C 0.19444444444444464 7.770627062706268  0 7.293729372937292  0 6.7326732673267315  C 0 6.171617161716171  0.19444444444444464 5.694719471947191  0.5833333333333334 5.301980198019803  C 0.9861111111111114 4.9092409240924075  1.461805555555556 4.7128712871287135  2.0104166666666665 4.7128712871287135  C 2.5590277777777777 4.7128712871287135  3.0277777777777777 4.9092409240924075  3.4166666666666665 5.301980198019803  L 8.166666666666668 10.0990099009901  L 15.833333333333332 10.0990099009901  L 20.583333333333332 5.301980198019803  C 20.972222222222225 4.9092409240924075  21.444444444444446 4.7128712871287135  22 4.7128712871287135  C 22.555555555555557 4.7128712871287135  23.027777777777782 4.9092409240924075  23.416666666666664 5.301980198019803  C 23.805555555555557 5.708745874587457  24 6.1891501650165  24 6.7431930693069315  Z M 15.302083333333334 1.378094059405939  C 16.211805555555557 2.2968234323432304  16.666666666666668 3.4084158415841577  16.666666666666664 4.7128712871287135  C 16.666666666666668 6.0173267326732685  16.211805555555557 7.128919141914189  15.302083333333334 8.047648514851485  C 14.392361111111112 8.966377887788775  13.291666666666666 9.425742574257427  12 9.425742574257427  C 10.708333333333334 9.425742574257427  9.60763888888889 8.966377887788775  8.697916666666666 8.047648514851485  C 7.788194444444445 7.128919141914189  7.333333333333334 6.0173267326732685  7.333333333333334 4.7128712871287135  C 7.333333333333334 3.4084158415841577  7.788194444444445 2.2968234323432304  8.697916666666666 1.378094059405939  C 9.60763888888889 0.4593646864686438  10.708333333333334 0  12 0  C 13.291666666666666 0  14.392361111111112 0.4593646864686438  15.302083333333334 1.378094059405939  Z " fill-rule="nonzero" fill="rgba(255, 255, 255, 1)" stroke="none" transform="matrix(1 0 0 1 356 906 )" class="fill" />
    <path d="M 24 6.7431930693069315  C 24 7.297235973597357  23.805555555555557 7.770627062706268  23.416666666666664 8.163366336633663  L 17 14.306930693069308  L 17 31.64356435643564  C 17.333333333333332 32.28877887788779  17.104166666666668 32.84282178217822  16.645833333333332 33.30569306930693  C 16.1875 33.76856435643565  15.638888888888891 34  15 34  C 14.36111111111111 34  13.8125 33.76856435643565  13.354166666666668 33.30569306930693  C 12.895833333333332 32.84282178217822  12.666666666666668 32.28877887788779  12.666666666666668 31.64356435643564  L 12.666666666666668 23.564356435643564  L 11.333333333333332 23.564356435643564  L 11.333333333333332 31.64356435643564  C 11.333333333333332 32.28877887788779  11.104166666666666 32.84282178217822  10.645833333333334 33.30569306930693  C 10.1875 33.76856435643565  9.638888888888891 34  9 34  C 8.36111111111111 34  7.812500000000001 33.76856435643565  7.354166666666666 33.30569306930693  C 6.895833333333334 32.84282178217822  6.666666666666667 32.28877887788779  7 31.64356435643564  L 7 14.306930693069308  L 0.5833333333333334 8.163366336633663  C 0.19444444444444464 7.770627062706268  0 7.293729372937292  0 6.7326732673267315  C 0 6.171617161716171  0.19444444444444464 5.694719471947191  0.5833333333333334 5.301980198019803  C 0.9861111111111114 4.9092409240924075  1.461805555555556 4.7128712871287135  2.0104166666666665 4.7128712871287135  C 2.5590277777777777 4.7128712871287135  3.0277777777777777 4.9092409240924075  3.4166666666666665 5.301980198019803  L 8.166666666666668 10.0990099009901  L 15.833333333333332 10.0990099009901  L 20.583333333333332 5.301980198019803  C 20.972222222222225 4.9092409240924075  21.444444444444446 4.7128712871287135  22 4.7128712871287135  C 22.555555555555557 4.7128712871287135  23.027777777777782 4.9092409240924075  23.416666666666664 5.301980198019803  C 23.805555555555557 5.708745874587457  24 6.1891501650165  24 6.7431930693069315  Z " stroke-width="0" stroke-dasharray="0" stroke="rgba(255, 255, 255, 0)" fill="none" transform="matrix(1 0 0 1 356 906 )" class="stroke" mask="url(#Clip22)" />
    <path d="M 15.302083333333334 1.378094059405939  C 16.211805555555557 2.2968234323432304  16.666666666666668 3.4084158415841577  16.666666666666664 4.7128712871287135  C 16.666666666666668 6.0173267326732685  16.211805555555557 7.128919141914189  15.302083333333334 8.047648514851485  C 14.392361111111112 8.966377887788775  13.291666666666666 9.425742574257427  12 9.425742574257427  C 10.708333333333334 9.425742574257427  9.60763888888889 8.966377887788775  8.697916666666666 8.047648514851485  C 7.788194444444445 7.128919141914189  7.333333333333334 6.0173267326732685  7.333333333333334 4.7128712871287135  C 7.333333333333334 3.4084158415841577  7.788194444444445 2.2968234323432304  8.697916666666666 1.378094059405939  C 9.60763888888889 0.4593646864686438  10.708333333333334 0  12 0  C 13.291666666666666 0  14.392361111111112 0.4593646864686438  15.302083333333334 1.378094059405939  Z " stroke-width="0" stroke-dasharray="0" stroke="rgba(255, 255, 255, 0)" fill="none" transform="matrix(1 0 0 1 356 906 )" class="stroke" mask="url(#Clip22)" />
  </g>
</svg>