<?xml version="1.0" encoding="utf-8"?>
<svg version="1.1" xmlns:xlink="http://www.w3.org/1999/xlink" width="37px" height="33px" xmlns="http://www.w3.org/2000/svg">
  <defs>
    <pattern id="BGPattern" patternUnits="userSpaceOnUse" alignment="0 0" imageRepeat="None" />
    <mask fill="white" id="Clip23">
      <path d="M 21.920572916666664 29.525669642857142  C 22.209635416666664 29.3046875  22.354166666666664 28.989583333333336  22.354166666666664 28.580357142857142  L 22 27.205357142857142  L 22 15.714285714285714  L 22.354166666666664 11.000000000000002  L 14.645833333333332 11.000000000000002  L 15 15.714285714285714  L 15 27.205357142857142  L 14.645833333333332 28.580357142857142  C 14.645833333333332 28.989583333333336  14.790364583333332 29.3046875  15.079427083333332 29.525669642857142  C 15.368489583333332 29.746651785714285  15.737847222222223 29.857142857142858  16.1875 29.857142857142858  L 20.8125 29.857142857142858  C 21.26215277777778 29.857142857142858  21.631510416666664 29.746651785714285  21.920572916666664 29.525669642857142  Z M 9.731770833333332 7.169642857142858  C 10.181423611111112 7.627976190476185  10.727430555555557 7.8571428571428585  11.369791666666668 7.8571428571428585  L 16.067057291666668 7.8571428571428585  L 13.031901041666668 3.904017857142856  C 12.614366319444446 3.396577380952378  12.06032986111111 3.142857142857143  11.369791666666668 3.142857142857143  C 10.727430555555557 3.142857142857143  10.181423611111112 3.3720238095238084  9.731770833333332 3.830357142857144  C 9.282118055555557 4.288690476190472  9.057291666666666 4.845238095238093  9.057291666666666 5.499999999999999  C 9.057291666666666 6.1547619047619015  9.282118055555557 6.711309523809522  9.731770833333332 7.169642857142858  Z M 27.268229166666664 7.169642857142858  C 27.717881944444446 6.711309523809522  27.942708333333336 6.1547619047619015  27.942708333333336 5.499999999999999  C 27.942708333333336 4.845238095238093  27.717881944444446 4.288690476190472  27.268229166666664 3.830357142857144  C 26.818576388888893 3.3720238095238084  26.272569444444446 3.142857142857143  25.630208333333336 3.142857142857143  C 24.939670138888893 3.142857142857143  24.385633680555557 3.396577380952378  23.968098958333336 3.904017857142856  L 20.95703125 7.8571428571428585  L 25.630208333333336 7.8571428571428585  C 26.272569444444446 7.8571428571428585  26.818576388888893 7.627976190476185  27.268229166666664 7.169642857142858  Z M 36.783203125 11.220982142857142  C 36.927734375 11.368303571428573  37 11.556547619047619  37 11.785714285714285  L 37 19.642857142857142  C 37 19.87202380952381  36.927734375 20.060267857142858  36.783203125 20.207589285714285  C 36.638671875 20.35491071428571  36.45399305555556 20.42857142857143  36.229166666666664 20.42857142857143  L 34 20.42857142857143  L 34 30.642857142857142  C 33.916666666666664 31.29761904761905  33.69184027777778 31.854166666666664  33.2421875 32.3125  C 32.79253472222223 32.770833333333336  32.24652777777778 33  31.604166666666664 33  L 5.395833333333334 33  C 4.753472222222223 33  4.207465277777779 32.770833333333336  3.7578125 32.3125  C 3.3081597222222223 31.854166666666664  3.083333333333333 31.29761904761905  3 30.642857142857142  L 3 20.42857142857143  L 0.7708333333333333 20.42857142857143  C 0.5460069444444445 20.42857142857143  0.36132812500000006 20.35491071428571  0.216796875 20.207589285714285  C 0.072265625 20.060267857142858  0 19.87202380952381  0 19.642857142857142  L 0 11.785714285714285  C 0 11.556547619047619  0.072265625 11.368303571428573  0.216796875 11.220982142857142  C 0.36132812500000006 11.073660714285714  0.5460069444444445 11.000000000000002  0.7708333333333333 11  L 11.369791666666668 11  C 9.876302083333332 11.000000000000002  8.603624131944445 10.46391369047619  7.5517578125 9.391741071428571  C 6.499891493055556 8.31956845238095  5.973958333333334 7.022321428571429  5.973958333333334 5.499999999999999  C 5.973958333333334 3.977678571428572  6.499891493055556 2.6804315476190426  7.5517578125 1.6082589285714293  C 8.603624131944445 0.5360863095238085  9.876302083333332 0  11.369791666666668 0  C 13.08810763888889 0  14.437065972222223 0.6302083333333293  15.416666666666668 1.8906249999999987  L 18.5 5.9419642857142865  L 21.583333333333336 1.8906249999999987  C 22.56293402777778 0.6302083333333293  23.911892361111114 0  25.630208333333336 0  C 27.123697916666664 0  28.39637586805556 0.5360863095238085  29.4482421875 1.6082589285714293  C 30.500108506944446 2.6804315476190426  31.026041666666664 3.977678571428572  31.026041666666664 5.499999999999999  C 31.026041666666664 7.022321428571429  30.500108506944446 8.31956845238095  29.4482421875 9.391741071428571  C 28.39637586805556 10.46391369047619  27.123697916666664 11.000000000000002  25.630208333333336 11  L 36.229166666666664 11  C 36.45399305555556 11.000000000000002  36.638671875 11.073660714285714  36.783203125 11.220982142857142  Z " fill-rule="evenodd" />
    </mask>
  </defs>
  <g transform="matrix(1 0 0 1 -269 -906 )">
    <path d="M 21.920572916666664 29.525669642857142  C 22.209635416666664 29.3046875  22.354166666666664 28.989583333333336  22.354166666666664 28.580357142857142  L 22 27.205357142857142  L 22 15.714285714285714  L 22.354166666666664 11.000000000000002  L 14.645833333333332 11.000000000000002  L 15 15.714285714285714  L 15 27.205357142857142  L 14.645833333333332 28.580357142857142  C 14.645833333333332 28.989583333333336  14.790364583333332 29.3046875  15.079427083333332 29.525669642857142  C 15.368489583333332 29.746651785714285  15.737847222222223 29.857142857142858  16.1875 29.857142857142858  L 20.8125 29.857142857142858  C 21.26215277777778 29.857142857142858  21.631510416666664 29.746651785714285  21.920572916666664 29.525669642857142  Z M 9.731770833333332 7.169642857142858  C 10.181423611111112 7.627976190476185  10.727430555555557 7.8571428571428585  11.369791666666668 7.8571428571428585  L 16.067057291666668 7.8571428571428585  L 13.031901041666668 3.904017857142856  C 12.614366319444446 3.396577380952378  12.06032986111111 3.142857142857143  11.369791666666668 3.142857142857143  C 10.727430555555557 3.142857142857143  10.181423611111112 3.3720238095238084  9.731770833333332 3.830357142857144  C 9.282118055555557 4.288690476190472  9.057291666666666 4.845238095238093  9.057291666666666 5.499999999999999  C 9.057291666666666 6.1547619047619015  9.282118055555557 6.711309523809522  9.731770833333332 7.169642857142858  Z M 27.268229166666664 7.169642857142858  C 27.717881944444446 6.711309523809522  27.942708333333336 6.1547619047619015  27.942708333333336 5.499999999999999  C 27.942708333333336 4.845238095238093  27.717881944444446 4.288690476190472  27.268229166666664 3.830357142857144  C 26.818576388888893 3.3720238095238084  26.272569444444446 3.142857142857143  25.630208333333336 3.142857142857143  C 24.939670138888893 3.142857142857143  24.385633680555557 3.396577380952378  23.968098958333336 3.904017857142856  L 20.95703125 7.8571428571428585  L 25.630208333333336 7.8571428571428585  C 26.272569444444446 7.8571428571428585  26.818576388888893 7.627976190476185  27.268229166666664 7.169642857142858  Z M 36.783203125 11.220982142857142  C 36.927734375 11.368303571428573  37 11.556547619047619  37 11.785714285714285  L 37 19.642857142857142  C 37 19.87202380952381  36.927734375 20.060267857142858  36.783203125 20.207589285714285  C 36.638671875 20.35491071428571  36.45399305555556 20.42857142857143  36.229166666666664 20.42857142857143  L 34 20.42857142857143  L 34 30.642857142857142  C 33.916666666666664 31.29761904761905  33.69184027777778 31.854166666666664  33.2421875 32.3125  C 32.79253472222223 32.770833333333336  32.24652777777778 33  31.604166666666664 33  L 5.395833333333334 33  C 4.753472222222223 33  4.207465277777779 32.770833333333336  3.7578125 32.3125  C 3.3081597222222223 31.854166666666664  3.083333333333333 31.29761904761905  3 30.642857142857142  L 3 20.42857142857143  L 0.7708333333333333 20.42857142857143  C 0.5460069444444445 20.42857142857143  0.36132812500000006 20.35491071428571  0.216796875 20.207589285714285  C 0.072265625 20.060267857142858  0 19.87202380952381  0 19.642857142857142  L 0 11.785714285714285  C 0 11.556547619047619  0.072265625 11.368303571428573  0.216796875 11.220982142857142  C 0.36132812500000006 11.073660714285714  0.5460069444444445 11.000000000000002  0.7708333333333333 11  L 11.369791666666668 11  C 9.876302083333332 11.000000000000002  8.603624131944445 10.46391369047619  7.5517578125 9.391741071428571  C 6.499891493055556 8.31956845238095  5.973958333333334 7.022321428571429  5.973958333333334 5.499999999999999  C 5.973958333333334 3.977678571428572  6.499891493055556 2.6804315476190426  7.5517578125 1.6082589285714293  C 8.603624131944445 0.5360863095238085  9.876302083333332 0  11.369791666666668 0  C 13.08810763888889 0  14.437065972222223 0.6302083333333293  15.416666666666668 1.8906249999999987  L 18.5 5.9419642857142865  L 21.583333333333336 1.8906249999999987  C 22.56293402777778 0.6302083333333293  23.911892361111114 0  25.630208333333336 0  C 27.123697916666664 0  28.39637586805556 0.5360863095238085  29.4482421875 1.6082589285714293  C 30.500108506944446 2.6804315476190426  31.026041666666664 3.977678571428572  31.026041666666664 5.499999999999999  C 31.026041666666664 7.022321428571429  30.500108506944446 8.31956845238095  29.4482421875 9.391741071428571  C 28.39637586805556 10.46391369047619  27.123697916666664 11.000000000000002  25.630208333333336 11  L 36.229166666666664 11  C 36.45399305555556 11.000000000000002  36.638671875 11.073660714285714  36.783203125 11.220982142857142  Z " fill-rule="nonzero" fill="rgba(255, 255, 255, 1)" stroke="none" transform="matrix(1 0 0 1 269 906 )" class="fill" />
    <path d="M 21.920572916666664 29.525669642857142  C 22.209635416666664 29.3046875  22.354166666666664 28.989583333333336  22.354166666666664 28.580357142857142  L 22 27.205357142857142  L 22 15.714285714285714  L 22.354166666666664 11.000000000000002  L 14.645833333333332 11.000000000000002  L 15 15.714285714285714  L 15 27.205357142857142  L 14.645833333333332 28.580357142857142  C 14.645833333333332 28.989583333333336  14.790364583333332 29.3046875  15.079427083333332 29.525669642857142  C 15.368489583333332 29.746651785714285  15.737847222222223 29.857142857142858  16.1875 29.857142857142858  L 20.8125 29.857142857142858  C 21.26215277777778 29.857142857142858  21.631510416666664 29.746651785714285  21.920572916666664 29.525669642857142  Z " stroke-width="0" stroke-dasharray="0" stroke="rgba(255, 255, 255, 0)" fill="none" transform="matrix(1 0 0 1 269 906 )" class="stroke" mask="url(#Clip23)" />
    <path d="M 9.731770833333332 7.169642857142858  C 10.181423611111112 7.627976190476185  10.727430555555557 7.8571428571428585  11.369791666666668 7.8571428571428585  L 16.067057291666668 7.8571428571428585  L 13.031901041666668 3.904017857142856  C 12.614366319444446 3.396577380952378  12.06032986111111 3.142857142857143  11.369791666666668 3.142857142857143  C 10.727430555555557 3.142857142857143  10.181423611111112 3.3720238095238084  9.731770833333332 3.830357142857144  C 9.282118055555557 4.288690476190472  9.057291666666666 4.845238095238093  9.057291666666666 5.499999999999999  C 9.057291666666666 6.1547619047619015  9.282118055555557 6.711309523809522  9.731770833333332 7.169642857142858  Z " stroke-width="0" stroke-dasharray="0" stroke="rgba(255, 255, 255, 0)" fill="none" transform="matrix(1 0 0 1 269 906 )" class="stroke" mask="url(#Clip23)" />
    <path d="M 27.268229166666664 7.169642857142858  C 27.717881944444446 6.711309523809522  27.942708333333336 6.1547619047619015  27.942708333333336 5.499999999999999  C 27.942708333333336 4.845238095238093  27.717881944444446 4.288690476190472  27.268229166666664 3.830357142857144  C 26.818576388888893 3.3720238095238084  26.272569444444446 3.142857142857143  25.630208333333336 3.142857142857143  C 24.939670138888893 3.142857142857143  24.385633680555557 3.396577380952378  23.968098958333336 3.904017857142856  L 20.95703125 7.8571428571428585  L 25.630208333333336 7.8571428571428585  C 26.272569444444446 7.8571428571428585  26.818576388888893 7.627976190476185  27.268229166666664 7.169642857142858  Z " stroke-width="0" stroke-dasharray="0" stroke="rgba(255, 255, 255, 0)" fill="none" transform="matrix(1 0 0 1 269 906 )" class="stroke" mask="url(#Clip23)" />
    <path d="M 36.783203125 11.220982142857142  C 36.927734375 11.368303571428573  37 11.556547619047619  37 11.785714285714285  L 37 19.642857142857142  C 37 19.87202380952381  36.927734375 20.060267857142858  36.783203125 20.207589285714285  C 36.638671875 20.35491071428571  36.45399305555556 20.42857142857143  36.229166666666664 20.42857142857143  L 34 20.42857142857143  L 34 30.642857142857142  C 33.916666666666664 31.29761904761905  33.69184027777778 31.854166666666664  33.2421875 32.3125  C 32.79253472222223 32.770833333333336  32.24652777777778 33  31.604166666666664 33  L 5.395833333333334 33  C 4.753472222222223 33  4.207465277777779 32.770833333333336  3.7578125 32.3125  C 3.3081597222222223 31.854166666666664  3.083333333333333 31.29761904761905  3 30.642857142857142  L 3 20.42857142857143  L 0.7708333333333333 20.42857142857143  C 0.5460069444444445 20.42857142857143  0.36132812500000006 20.35491071428571  0.216796875 20.207589285714285  C 0.072265625 20.060267857142858  0 19.87202380952381  0 19.642857142857142  L 0 11.785714285714285  C 0 11.556547619047619  0.072265625 11.368303571428573  0.216796875 11.220982142857142  C 0.36132812500000006 11.073660714285714  0.5460069444444445 11.000000000000002  0.7708333333333333 11  L 11.369791666666668 11  C 9.876302083333332 11.000000000000002  8.603624131944445 10.46391369047619  7.5517578125 9.391741071428571  C 6.499891493055556 8.31956845238095  5.973958333333334 7.022321428571429  5.973958333333334 5.499999999999999  C 5.973958333333334 3.977678571428572  6.499891493055556 2.6804315476190426  7.5517578125 1.6082589285714293  C 8.603624131944445 0.5360863095238085  9.876302083333332 0  11.369791666666668 0  C 13.08810763888889 0  14.437065972222223 0.6302083333333293  15.416666666666668 1.8906249999999987  L 18.5 5.9419642857142865  L 21.583333333333336 1.8906249999999987  C 22.56293402777778 0.6302083333333293  23.911892361111114 0  25.630208333333336 0  C 27.123697916666664 0  28.39637586805556 0.5360863095238085  29.4482421875 1.6082589285714293  C 30.500108506944446 2.6804315476190426  31.026041666666664 3.977678571428572  31.026041666666664 5.499999999999999  C 31.026041666666664 7.022321428571429  30.500108506944446 8.31956845238095  29.4482421875 9.391741071428571  C 28.39637586805556 10.46391369047619  27.123697916666664 11.000000000000002  25.630208333333336 11  L 36.229166666666664 11  C 36.45399305555556 11.000000000000002  36.638671875 11.073660714285714  36.783203125 11.220982142857142  Z " stroke-width="0" stroke-dasharray="0" stroke="rgba(255, 255, 255, 0)" fill="none" transform="matrix(1 0 0 1 269 906 )" class="stroke" mask="url(#Clip23)" />
  </g>
</svg>