<?xml version="1.0" encoding="utf-8"?>
<svg version="1.1" xmlns:xlink="http://www.w3.org/1999/xlink" width="32px" height="32px" xmlns="http://www.w3.org/2000/svg">
  <defs>
    <pattern id="BGPattern" patternUnits="userSpaceOnUse" alignment="0 0" imageRepeat="None" />
    <mask fill="white" id="Clip26">
      <path d="M 12.839285714285714 20.57142857142857  L 10.875 14.571428571428573  L 16 10.857142857142858  L 21.125 14.571428571428573  L 19.178571428571427 20.57142857142857  L 12.839285714285714 20.57142857142857  Z M 9.785714285714286 1.2678571428571423  C 11.761904761904763 0.42261904761904745  13.833333333333334 0  16 0  C 18.166666666666668 0  20.23809523809524 0.42261904761904745  22.214285714285715 1.2678571428571423  C 24.190476190476193 2.1130952380952372  25.892857142857142 3.25  27.321428571428573 4.678571428571427  C 28.750000000000004 6.107142857142858  29.886904761904766 7.809523809523807  30.732142857142858 9.785714285714285  C 31.577380952380956 11.76190476190476  32 13.833333333333332  32 16  C 32 18.166666666666664  31.577380952380956 20.238095238095237  30.732142857142858 22.214285714285715  C 29.886904761904766 24.19047619047619  28.750000000000004 25.892857142857142  27.321428571428573 27.32142857142857  C 25.892857142857142 28.75  24.190476190476193 29.886904761904763  22.214285714285715 30.732142857142858  C 20.23809523809524 31.577380952380953  18.166666666666668 32  16 32  C 13.833333333333334 32  11.761904761904763 31.577380952380953  9.785714285714286 30.732142857142858  C 7.80952380952381 29.886904761904763  6.107142857142857 28.75  4.678571428571429 27.32142857142857  C 3.25 25.892857142857142  2.113095238095238 24.19047619047619  1.2678571428571428 22.214285714285715  C 0.42261904761904756 20.238095238095237  0 18.166666666666664  0 16  C 0 13.833333333333332  0.42261904761904756 11.76190476190476  1.2678571428571428 9.785714285714285  C 2.113095238095238 7.809523809523807  3.25 6.107142857142858  4.678571428571429 4.678571428571427  C 6.107142857142857 3.25  7.80952380952381 2.1130952380952372  9.785714285714286 1.2678571428571423  Z M 26.517857142857142 21.75  L 27.053571428571427 24.107142857142858  C 28.827380952380956 21.69047619047619  29.714285714285715 18.988095238095237  29.714285714285715 16  L 29.714285714285715 15.946428571428573  L 27.892857142857142 17.535714285714285  L 23.607142857142858 13.535714285714285  L 24.732142857142858 7.767857142857142  L 27.125 7.982142857142858  C 25.339285714285715 5.5297619047619015  23.023809523809526 3.8511904761904745  20.178571428571427 2.946428571428573  L 21.125 5.160714285714285  L 16 8  L 10.875 5.160714285714285  L 11.821428571428571 2.946428571428573  C 8.976190476190478 3.8511904761904745  6.6607142857142865 5.5297619047619015  4.875 7.982142857142858  L 7.285714285714286 7.767857142857142  L 8.392857142857142 13.535714285714285  L 4.107142857142857 17.535714285714285  L 2.2857142857142856 15.946428571428573  L 2.2857142857142856 16  C 2.2857142857142856 18.988095238095237  3.172619047619048 21.69047619047619  4.946428571428571 24.107142857142858  L 5.482142857142857 21.75  L 11.303571428571429 22.464285714285715  L 13.785714285714286 27.785714285714285  L 11.714285714285714 29.017857142857142  C 13.107142857142858 29.482142857142858  14.535714285714286 29.714285714285715  16 29.714285714285715  C 17.464285714285715 29.714285714285715  18.892857142857142 29.482142857142858  20.285714285714285 29.017857142857142  L 18.214285714285715 27.785714285714285  L 20.696428571428573 22.464285714285715  L 26.517857142857142 21.75  Z " fill-rule="evenodd" />
    </mask>
  </defs>
  <g transform="matrix(1 0 0 1 -473 -906 )">
    <path d="M 12.839285714285714 20.57142857142857  L 10.875 14.571428571428573  L 16 10.857142857142858  L 21.125 14.571428571428573  L 19.178571428571427 20.57142857142857  L 12.839285714285714 20.57142857142857  Z M 9.785714285714286 1.2678571428571423  C 11.761904761904763 0.42261904761904745  13.833333333333334 0  16 0  C 18.166666666666668 0  20.23809523809524 0.42261904761904745  22.214285714285715 1.2678571428571423  C 24.190476190476193 2.1130952380952372  25.892857142857142 3.25  27.321428571428573 4.678571428571427  C 28.750000000000004 6.107142857142858  29.886904761904766 7.809523809523807  30.732142857142858 9.785714285714285  C 31.577380952380956 11.76190476190476  32 13.833333333333332  32 16  C 32 18.166666666666664  31.577380952380956 20.238095238095237  30.732142857142858 22.214285714285715  C 29.886904761904766 24.19047619047619  28.750000000000004 25.892857142857142  27.321428571428573 27.32142857142857  C 25.892857142857142 28.75  24.190476190476193 29.886904761904763  22.214285714285715 30.732142857142858  C 20.23809523809524 31.577380952380953  18.166666666666668 32  16 32  C 13.833333333333334 32  11.761904761904763 31.577380952380953  9.785714285714286 30.732142857142858  C 7.80952380952381 29.886904761904763  6.107142857142857 28.75  4.678571428571429 27.32142857142857  C 3.25 25.892857142857142  2.113095238095238 24.19047619047619  1.2678571428571428 22.214285714285715  C 0.42261904761904756 20.238095238095237  0 18.166666666666664  0 16  C 0 13.833333333333332  0.42261904761904756 11.76190476190476  1.2678571428571428 9.785714285714285  C 2.113095238095238 7.809523809523807  3.25 6.107142857142858  4.678571428571429 4.678571428571427  C 6.107142857142857 3.25  7.80952380952381 2.1130952380952372  9.785714285714286 1.2678571428571423  Z M 26.517857142857142 21.75  L 27.053571428571427 24.107142857142858  C 28.827380952380956 21.69047619047619  29.714285714285715 18.988095238095237  29.714285714285715 16  L 29.714285714285715 15.946428571428573  L 27.892857142857142 17.535714285714285  L 23.607142857142858 13.535714285714285  L 24.732142857142858 7.767857142857142  L 27.125 7.982142857142858  C 25.339285714285715 5.5297619047619015  23.023809523809526 3.8511904761904745  20.178571428571427 2.946428571428573  L 21.125 5.160714285714285  L 16 8  L 10.875 5.160714285714285  L 11.821428571428571 2.946428571428573  C 8.976190476190478 3.8511904761904745  6.6607142857142865 5.5297619047619015  4.875 7.982142857142858  L 7.285714285714286 7.767857142857142  L 8.392857142857142 13.535714285714285  L 4.107142857142857 17.535714285714285  L 2.2857142857142856 15.946428571428573  L 2.2857142857142856 16  C 2.2857142857142856 18.988095238095237  3.172619047619048 21.69047619047619  4.946428571428571 24.107142857142858  L 5.482142857142857 21.75  L 11.303571428571429 22.464285714285715  L 13.785714285714286 27.785714285714285  L 11.714285714285714 29.017857142857142  C 13.107142857142858 29.482142857142858  14.535714285714286 29.714285714285715  16 29.714285714285715  C 17.464285714285715 29.714285714285715  18.892857142857142 29.482142857142858  20.285714285714285 29.017857142857142  L 18.214285714285715 27.785714285714285  L 20.696428571428573 22.464285714285715  L 26.517857142857142 21.75  Z " fill-rule="nonzero" fill="rgba(217, 0, 27, 1)" stroke="none" transform="matrix(1 0 0 1 473 906 )" class="fill" />
    <path d="M 12.839285714285714 20.57142857142857  L 10.875 14.571428571428573  L 16 10.857142857142858  L 21.125 14.571428571428573  L 19.178571428571427 20.57142857142857  L 12.839285714285714 20.57142857142857  Z " stroke-width="0" stroke-dasharray="0" stroke="rgba(255, 255, 255, 0)" fill="none" transform="matrix(1 0 0 1 473 906 )" class="stroke" mask="url(#Clip26)" />
    <path d="M 9.785714285714286 1.2678571428571423  C 11.761904761904763 0.42261904761904745  13.833333333333334 0  16 0  C 18.166666666666668 0  20.23809523809524 0.42261904761904745  22.214285714285715 1.2678571428571423  C 24.190476190476193 2.1130952380952372  25.892857142857142 3.25  27.321428571428573 4.678571428571427  C 28.750000000000004 6.107142857142858  29.886904761904766 7.809523809523807  30.732142857142858 9.785714285714285  C 31.577380952380956 11.76190476190476  32 13.833333333333332  32 16  C 32 18.166666666666664  31.577380952380956 20.238095238095237  30.732142857142858 22.214285714285715  C 29.886904761904766 24.19047619047619  28.750000000000004 25.892857142857142  27.321428571428573 27.32142857142857  C 25.892857142857142 28.75  24.190476190476193 29.886904761904763  22.214285714285715 30.732142857142858  C 20.23809523809524 31.577380952380953  18.166666666666668 32  16 32  C 13.833333333333334 32  11.761904761904763 31.577380952380953  9.785714285714286 30.732142857142858  C 7.80952380952381 29.886904761904763  6.107142857142857 28.75  4.678571428571429 27.32142857142857  C 3.25 25.892857142857142  2.113095238095238 24.19047619047619  1.2678571428571428 22.214285714285715  C 0.42261904761904756 20.238095238095237  0 18.166666666666664  0 16  C 0 13.833333333333332  0.42261904761904756 11.76190476190476  1.2678571428571428 9.785714285714285  C 2.113095238095238 7.809523809523807  3.25 6.107142857142858  4.678571428571429 4.678571428571427  C 6.107142857142857 3.25  7.80952380952381 2.1130952380952372  9.785714285714286 1.2678571428571423  Z " stroke-width="0" stroke-dasharray="0" stroke="rgba(255, 255, 255, 0)" fill="none" transform="matrix(1 0 0 1 473 906 )" class="stroke" mask="url(#Clip26)" />
    <path d="M 26.517857142857142 21.75  L 27.053571428571427 24.107142857142858  C 28.827380952380956 21.69047619047619  29.714285714285715 18.988095238095237  29.714285714285715 16  L 29.714285714285715 15.946428571428573  L 27.892857142857142 17.535714285714285  L 23.607142857142858 13.535714285714285  L 24.732142857142858 7.767857142857142  L 27.125 7.982142857142858  C 25.339285714285715 5.5297619047619015  23.023809523809526 3.8511904761904745  20.178571428571427 2.946428571428573  L 21.125 5.160714285714285  L 16 8  L 10.875 5.160714285714285  L 11.821428571428571 2.946428571428573  C 8.976190476190478 3.8511904761904745  6.6607142857142865 5.5297619047619015  4.875 7.982142857142858  L 7.285714285714286 7.767857142857142  L 8.392857142857142 13.535714285714285  L 4.107142857142857 17.535714285714285  L 2.2857142857142856 15.946428571428573  L 2.2857142857142856 16  C 2.2857142857142856 18.988095238095237  3.172619047619048 21.69047619047619  4.946428571428571 24.107142857142858  L 5.482142857142857 21.75  L 11.303571428571429 22.464285714285715  L 13.785714285714286 27.785714285714285  L 11.714285714285714 29.017857142857142  C 13.107142857142858 29.482142857142858  14.535714285714286 29.714285714285715  16 29.714285714285715  C 17.464285714285715 29.714285714285715  18.892857142857142 29.482142857142858  20.285714285714285 29.017857142857142  L 18.214285714285715 27.785714285714285  L 20.696428571428573 22.464285714285715  L 26.517857142857142 21.75  Z " stroke-width="0" stroke-dasharray="0" stroke="rgba(255, 255, 255, 0)" fill="none" transform="matrix(1 0 0 1 473 906 )" class="stroke" mask="url(#Clip26)" />
  </g>
</svg>