<?xml version="1.0" encoding="utf-8"?>
<svg version="1.1" xmlns:xlink="http://www.w3.org/1999/xlink" width="340px" height="16px" xmlns="http://www.w3.org/2000/svg">
  <defs>
    <linearGradient gradientUnits="userSpaceOnUse" x1="170" y1="0" x2="170" y2="16" id="LinearGradient110">
      <stop id="Stop111" stop-color="#ffffff" offset="0" />
      <stop id="Stop112" stop-color="#f2f2f2" offset="0" />
      <stop id="Stop113" stop-color="#e4e4e4" offset="1" />
      <stop id="Stop114" stop-color="#ffffff" offset="1" />
    </linearGradient>
    <pattern id="BGPattern" patternUnits="userSpaceOnUse" alignment="0 0" imageRepeat="None" />
    <mask fill="white" id="Clip115">
      <path d="M 8 16  C 3.5199999999999996 16  0 12.48  0 8  C 0 3.5199999999999996  3.5199999999999996 0  8 0  L 332 0  C 336.48 0  340 3.5199999999999996  340 8  C 340 12.48  336.48 16  332 16  L 8 16  Z " fill-rule="evenodd" />
    </mask>
  </defs>
  <g transform="matrix(1 0 0 1 -28 -526 )">
    <path d="M 8 16  C 3.5199999999999996 16  0 12.48  0 8  C 0 3.5199999999999996  3.5199999999999996 0  8 0  L 332 0  C 336.48 0  340 3.5199999999999996  340 8  C 340 12.48  336.48 16  332 16  L 8 16  Z " fill-rule="nonzero" fill="url(#LinearGradient110)" stroke="none" transform="matrix(1 0 0 1 28 526 )" class="fill" />
    <path d="M 8 16  C 3.5199999999999996 16  0 12.48  0 8  C 0 3.5199999999999996  3.5199999999999996 0  8 0  L 332 0  C 336.48 0  340 3.5199999999999996  340 8  C 340 12.48  336.48 16  332 16  L 8 16  Z " stroke-width="2" stroke-dasharray="0" stroke="rgba(121, 121, 121, 1)" fill="none" transform="matrix(1 0 0 1 28 526 )" class="stroke" mask="url(#Clip115)" />
  </g>
</svg>