<?xml version="1.0" encoding="utf-8"?>
<svg version="1.1" xmlns:xlink="http://www.w3.org/1999/xlink" width="101px" height="418px" xmlns="http://www.w3.org/2000/svg">
  <defs>
    <pattern id="BGPattern" patternUnits="userSpaceOnUse" alignment="0 0" imageRepeat="None" />
    <mask fill="white" id="Clip82">
      <path d="M 0 418  L 0 0  L 101 0  L 101 418  L 0 418  Z " fill-rule="evenodd" />
    </mask>
  </defs>
  <g transform="matrix(1 0 0 1 -321 -354 )">
    <path d="M 0 418  L 0 0  L 101 0  L 101 418  L 0 418  Z " fill-rule="nonzero" fill="rgba(242, 242, 242, 0)" stroke="none" transform="matrix(1 0 0 1 321 354 )" class="fill" />
    <path d="M 0 418  L 0 0  L 101 0  L 101 418  L 0 418  Z " stroke-width="2" stroke-dasharray="0" stroke="rgba(249, 8, 8, 1)" fill="none" transform="matrix(1 0 0 1 321 354 )" class="stroke" mask="url(#Clip82)" />
    <path d="M 100.51398634378239 2.0114228544451707  L 0.486013656217613 415.9885771455548  M 0.486013656217613 2.0114228544451707  L 100.51398634378239 415.9885771455548  " stroke-width="1" stroke-dasharray="0" stroke="rgba(249, 8, 8, 1)" fill="none" transform="matrix(1 0 0 1 321 354 )" class="stroke" />
  </g>
</svg>