<?xml version="1.0" encoding="utf-8"?>
<svg version="1.1" xmlns:xlink="http://www.w3.org/1999/xlink" width="92px" height="264px" xmlns="http://www.w3.org/2000/svg">
  <defs>
    <pattern id="BGPattern" patternUnits="userSpaceOnUse" alignment="0 0" imageRepeat="None" />
    <mask fill="white" id="Clip114">
      <path d="M 0 264  L 0 0  L 92 0  L 92 264  L 0 264  Z " fill-rule="evenodd" />
    </mask>
  </defs>
  <g transform="matrix(1 0 0 1 -1546 -338 )">
    <path d="M 0 264  L 0 0  L 92 0  L 92 264  L 0 264  Z " fill-rule="nonzero" fill="rgba(242, 242, 242, 0)" stroke="none" transform="matrix(1 0 0 1 1546 338 )" class="fill" />
    <path d="M 0 264  L 0 0  L 92 0  L 92 264  L 0 264  Z " stroke-width="2" stroke-dasharray="0" stroke="rgba(255, 0, 0, 1)" fill="none" transform="matrix(1 0 0 1 1546 338 )" class="stroke" mask="url(#Clip114)" />
    <path d="M 91.52784819331406 1.3548704017944648  L 0.4721518066859498 262.64512959820553  M 0.4721518066859498 1.3548704017944648  L 91.52784819331406 262.64512959820553  " stroke-width="1" stroke-dasharray="0" stroke="rgba(255, 0, 0, 1)" fill="none" transform="matrix(1 0 0 1 1546 338 )" class="stroke" />
  </g>
</svg>