<?xml version="1.0" encoding="utf-8"?>
<svg version="1.1" xmlns:xlink="http://www.w3.org/1999/xlink" width="75px" height="431px" xmlns="http://www.w3.org/2000/svg">
  <defs>
    <pattern id="BGPattern" patternUnits="userSpaceOnUse" alignment="0 0" imageRepeat="None" />
    <mask fill="white" id="Clip80">
      <path d="M 0 431  L 0 0  L 75 0  L 75 431  L 0 431  Z " fill-rule="evenodd" />
    </mask>
  </defs>
  <g transform="matrix(1 0 0 1 -845 -157 )">
    <path d="M 0 431  L 0 0  L 75 0  L 75 431  L 0 431  Z " fill-rule="nonzero" fill="rgba(242, 242, 242, 0)" stroke="none" transform="matrix(1 0 0 1 845 157 )" class="fill" />
    <path d="M 0 431  L 0 0  L 75 0  L 75 431  L 0 431  Z " stroke-width="2" stroke-dasharray="0" stroke="rgba(255, 0, 0, 1)" fill="none" transform="matrix(1 0 0 1 845 157 )" class="stroke" mask="url(#Clip80)" />
    <path d="M 74.50740251333761 2.8307935566865936  L 0.4925974866624002 428.16920644331344  M 0.4925974866624002 2.8307935566865936  L 74.50740251333761 428.16920644331344  " stroke-width="1" stroke-dasharray="0" stroke="rgba(255, 0, 0, 1)" fill="none" transform="matrix(1 0 0 1 845 157 )" class="stroke" />
  </g>
</svg>