<?xml version="1.0" encoding="utf-8"?>
<svg version="1.1" xmlns:xlink="http://www.w3.org/1999/xlink" width="839px" height="241px" xmlns="http://www.w3.org/2000/svg">
  <defs>
    <pattern id="BGPattern" patternUnits="userSpaceOnUse" alignment="0 0" imageRepeat="None" />
    <mask fill="white" id="Clip121">
      <path d="M 0 241  L 0 0  L 839 0  L 839 241  L 0 241  Z " fill-rule="evenodd" />
    </mask>
  </defs>
  <g transform="matrix(1 0 0 1 -106 -646 )">
    <path d="M 0 241  L 0 0  L 839 0  L 839 241  L 0 241  Z " fill-rule="nonzero" fill="rgba(242, 242, 242, 0)" stroke="none" transform="matrix(1 0 0 1 106 646 )" class="fill" />
    <path d="M 0 241  L 0 0  L 839 0  L 839 241  L 0 241  Z " stroke-width="2" stroke-dasharray="0" stroke="rgba(255, 0, 0, 1)" fill="none" transform="matrix(1 0 0 1 106 646 )" class="stroke" mask="url(#Clip121)" />
    <path d="M 837.3269888791799 0.48056696080768757  L 1.673011120820124 240.51943303919234  M 1.673011120820124 0.48056696080768757  L 837.3269888791799 240.51943303919234  " stroke-width="1" stroke-dasharray="0" stroke="rgba(255, 0, 0, 1)" fill="none" transform="matrix(1 0 0 1 106 646 )" class="stroke" />
  </g>
</svg>