<?xml version="1.0" encoding="utf-8"?>
<svg version="1.1" xmlns:xlink="http://www.w3.org/1999/xlink" width="846px" height="472px" xmlns="http://www.w3.org/2000/svg">
  <defs>
    <pattern id="BGPattern" patternUnits="userSpaceOnUse" alignment="0 0" imageRepeat="None" />
    <mask fill="white" id="Clip122">
      <path d="M 0 472  L 0 0  L 846 0  L 846 472  L 0 472  Z " fill-rule="evenodd" />
    </mask>
  </defs>
  <g transform="matrix(1 0 0 1 -957 -408 )">
    <path d="M 0 472  L 0 0  L 846 0  L 846 472  L 0 472  Z " fill-rule="nonzero" fill="rgba(242, 242, 242, 0)" stroke="none" transform="matrix(1 0 0 1 957 408 )" class="fill" />
    <path d="M 0 472  L 0 0  L 846 0  L 846 472  L 0 472  Z " stroke-width="2" stroke-dasharray="0" stroke="rgba(255, 0, 0, 1)" fill="none" transform="matrix(1 0 0 1 957 408 )" class="stroke" mask="url(#Clip122)" />
    <path d="M 845.2173788266518 0.4366397090074978  L 0.7826211733481846 471.5633602909925  M 0.7826211733481846 0.4366397090074978  L 845.2173788266518 471.5633602909925  " stroke-width="1" stroke-dasharray="0" stroke="rgba(255, 0, 0, 1)" fill="none" transform="matrix(1 0 0 1 957 408 )" class="stroke" />
  </g>
</svg>