<?xml version="1.0" encoding="utf-8"?>
<svg version="1.1" xmlns:xlink="http://www.w3.org/1999/xlink" width="300px" height="38px" xmlns="http://www.w3.org/2000/svg">
  <defs>
    <pattern id="BGPattern" patternUnits="userSpaceOnUse" alignment="0 0" imageRepeat="None" />
    <mask fill="white" id="Clip113">
      <path d="M 0 38  L 0 0  L 300 0  L 300 38  L 0 38  Z " fill-rule="evenodd" />
    </mask>
  </defs>
  <g transform="matrix(1 0 0 1 -322 -183 )">
    <path d="M 0 38  L 0 0  L 300 0  L 300 38  L 0 38  Z " fill-rule="nonzero" fill="rgba(242, 242, 242, 0)" stroke="none" transform="matrix(1 0 0 1 322 183 )" class="fill" />
    <path d="M 0 38  L 0 0  L 300 0  L 300 38  L 0 38  Z " stroke-width="2" stroke-dasharray="0" stroke="rgba(255, 7, 37, 1)" fill="none" transform="matrix(1 0 0 1 322 183 )" class="stroke" mask="url(#Clip113)" />
    <path d="M 296.08392221440414 0.49603651950880506  L 3.9160777855958298 37.503963480491194  M 3.9160777855958298 0.49603651950880506  L 296.08392221440414 37.503963480491194  " stroke-width="1" stroke-dasharray="0" stroke="rgba(255, 7, 37, 1)" fill="none" transform="matrix(1 0 0 1 322 183 )" class="stroke" />
  </g>
</svg>