<?xml version="1.0" encoding="utf-8"?>
<svg version="1.1" xmlns:xlink="http://www.w3.org/1999/xlink" width="76px" height="32px" xmlns="http://www.w3.org/2000/svg">
  <defs>
    <pattern id="BGPattern" patternUnits="userSpaceOnUse" alignment="0 0" imageRepeat="None" />
    <mask fill="white" id="Clip119">
      <path d="M 76 27.42857142857143  L 76 4.571428571428571  C 76 2.011428571428571  73.91 0  71.25 0  L 0 0  L 0 32  L 71.25 32  C 73.91 32  76 29.98857142857143  76 27.42857142857143  Z " fill-rule="evenodd" />
    </mask>
  </defs>
  <g transform="matrix(1 0 0 1 -581 -152 )">
    <path d="M 76 27.42857142857143  L 76 4.571428571428571  C 76 2.011428571428571  73.91 0  71.25 0  L 0 0  L 0 32  L 71.25 32  C 73.91 32  76 29.98857142857143  76 27.42857142857143  Z " fill-rule="nonzero" fill="rgba(255, 255, 255, 1)" stroke="none" transform="matrix(1 0 0 1 581 152 )" class="fill" />
    <path d="M 76 27.42857142857143  L 76 4.571428571428571  C 76 2.011428571428571  73.91 0  71.25 0  L 0 0  L 0 32  L 71.25 32  C 73.91 32  76 29.98857142857143  76 27.42857142857143  Z " stroke-width="2" stroke-dasharray="0" stroke="rgba(217, 217, 217, 1)" fill="none" transform="matrix(1 0 0 1 581 152 )" class="stroke" mask="url(#Clip119)" />
  </g>
</svg>