<?xml version="1.0" encoding="utf-8"?>
<svg version="1.1" xmlns:xlink="http://www.w3.org/1999/xlink" width="300px" height="36px" xmlns="http://www.w3.org/2000/svg">
  <defs>
    <pattern id="BGPattern" patternUnits="userSpaceOnUse" alignment="0 0" imageRepeat="None" />
    <mask fill="white" id="Clip117">
      <path d="M 0 36  L 0 0  L 300 0  L 300 36  L 0 36  Z " fill-rule="evenodd" />
    </mask>
  </defs>
  <g transform="matrix(1 0 0 1 -626 -206 )">
    <path d="M 0 36  L 0 0  L 300 0  L 300 36  L 0 36  Z " fill-rule="nonzero" fill="rgba(242, 242, 242, 0)" stroke="none" transform="matrix(1 0 0 1 626 206 )" class="fill" />
    <path d="M 0 36  L 0 0  L 300 0  L 300 36  L 0 36  Z " stroke-width="2" stroke-dasharray="0" stroke="rgba(255, 0, 0, 1)" fill="none" transform="matrix(1 0 0 1 626 206 )" class="stroke" mask="url(#Clip117)" />
    <path d="M 295.86301317297114 0.49643841924346105  L 4.136986827028842 35.50356158075654  M 4.136986827028842 0.49643841924346105  L 295.86301317297114 35.50356158075654  " stroke-width="1" stroke-dasharray="0" stroke="rgba(255, 0, 0, 1)" fill="none" transform="matrix(1 0 0 1 626 206 )" class="stroke" />
  </g>
</svg>